<mxfile host="65bd71144e">
    <diagram id="_1IlsQg4N5QaLtDpFi36" name="Page-1">
        <mxGraphModel dx="2217" dy="1923" grid="1" gridSize="10" guides="1" tooltips="1" connect="1" arrows="1" fold="1" page="1" pageScale="1" pageWidth="850" pageHeight="1100" math="0" shadow="0">
            <root>
                <mxCell id="0"/>
                <mxCell id="1" parent="0"/>
                <mxCell id="104" style="edgeStyle=orthogonalEdgeStyle;rounded=0;orthogonalLoop=1;jettySize=auto;html=1;exitX=0.5;exitY=0;exitDx=0;exitDy=0;" parent="1" source="105" edge="1">
                    <mxGeometry relative="1" as="geometry">
                        <mxPoint x="-520" y="-929.9999999999999" as="targetPoint"/>
                    </mxGeometry>
                </mxCell>
                <mxCell id="105" value="TechnicalStaff" style="swimlane;fontStyle=1;align=center;verticalAlign=top;childLayout=stackLayout;horizontal=1;startSize=26;horizontalStack=0;resizeParent=1;resizeParentMax=0;resizeLast=0;collapsible=1;marginBottom=0;" parent="1" vertex="1">
                    <mxGeometry x="-740" y="-890" width="170" height="130" as="geometry"/>
                </mxCell>
                <mxCell id="106" value="- isAvailable : Boolean&#10;- skills  : List&lt;String&gt;" style="text;strokeColor=none;fillColor=none;align=left;verticalAlign=top;spacingLeft=4;spacingRight=4;overflow=hidden;rotatable=0;points=[[0,0.5],[1,0.5]];portConstraint=eastwest;" parent="105" vertex="1">
                    <mxGeometry y="26" width="170" height="34" as="geometry"/>
                </mxCell>
                <mxCell id="107" value="" style="line;strokeWidth=1;fillColor=none;align=left;verticalAlign=middle;spacingTop=-1;spacingLeft=3;spacingRight=3;rotatable=0;labelPosition=right;points=[];portConstraint=eastwest;" parent="105" vertex="1">
                    <mxGeometry y="60" width="170" height="30" as="geometry"/>
                </mxCell>
                <mxCell id="108" value="+approveRevision() : void&#10;+assessAndAdvise() : void" style="text;strokeColor=none;fillColor=none;align=left;verticalAlign=top;spacingLeft=4;spacingRight=4;overflow=hidden;rotatable=0;points=[[0,0.5],[1,0.5]];portConstraint=eastwest;" parent="105" vertex="1">
                    <mxGeometry y="90" width="170" height="40" as="geometry"/>
                </mxCell>
                <mxCell id="109" value="Extends" style="endArrow=block;endSize=16;endFill=0;html=1;entryX=0.5;entryY=1;entryDx=0;entryDy=0;" parent="1" target="119" edge="1">
                    <mxGeometry width="160" relative="1" as="geometry">
                        <mxPoint x="-520" y="-910" as="sourcePoint"/>
                        <mxPoint x="-535.03" y="-1050.884" as="targetPoint"/>
                    </mxGeometry>
                </mxCell>
                <mxCell id="110" style="edgeStyle=orthogonalEdgeStyle;rounded=0;orthogonalLoop=1;jettySize=auto;html=1;exitX=0.5;exitY=0;exitDx=0;exitDy=0;" parent="1" source="111" edge="1">
                    <mxGeometry relative="1" as="geometry">
                        <mxPoint x="-520" y="-929.9999999999999" as="targetPoint"/>
                    </mxGeometry>
                </mxCell>
                <mxCell id="111" value="AdministrationStaff" style="swimlane;fontStyle=1;align=center;verticalAlign=top;childLayout=stackLayout;horizontal=1;startSize=26;horizontalStack=0;resizeParent=1;resizeParentMax=0;resizeLast=0;collapsible=1;marginBottom=0;" parent="1" vertex="1">
                    <mxGeometry x="-480" y="-890" width="190" height="130" as="geometry"/>
                </mxCell>
                <mxCell id="112" value="- qualification: List&lt;String&gt;" style="text;strokeColor=none;fillColor=none;align=left;verticalAlign=top;spacingLeft=4;spacingRight=4;overflow=hidden;rotatable=0;points=[[0,0.5],[1,0.5]];portConstraint=eastwest;" parent="111" vertex="1">
                    <mxGeometry y="26" width="190" height="24" as="geometry"/>
                </mxCell>
                <mxCell id="113" value="" style="line;strokeWidth=1;fillColor=none;align=left;verticalAlign=middle;spacingTop=-1;spacingLeft=3;spacingRight=3;rotatable=0;labelPosition=right;points=[];portConstraint=eastwest;" parent="111" vertex="1">
                    <mxGeometry y="50" width="190" height="34" as="geometry"/>
                </mxCell>
                <mxCell id="114" value="+manageCompain() : void&#10;+recordCopmpaignDetail() : volid" style="text;strokeColor=none;fillColor=none;align=left;verticalAlign=top;spacingLeft=4;spacingRight=4;overflow=hidden;rotatable=0;points=[[0,0.5],[1,0.5]];portConstraint=eastwest;" parent="111" vertex="1">
                    <mxGeometry y="84" width="190" height="46" as="geometry"/>
                </mxCell>
                <mxCell id="115" value="Campaign" style="swimlane;fontStyle=1;align=center;verticalAlign=top;childLayout=stackLayout;horizontal=1;startSize=26;horizontalStack=0;resizeParent=1;resizeParentMax=0;resizeLast=0;collapsible=1;marginBottom=0;" parent="1" vertex="1">
                    <mxGeometry x="-730" y="-660" width="170" height="244" as="geometry"/>
                </mxCell>
                <mxCell id="116" value="-assesgmentRating : int&#10;-budgetCost : Double&#10;-commissioned : double&#10;-endDate : Date&#10;-stateDate : Date&#10;-payments : Double&#10;-requirements : List&lt;String&gt;&#10;-revision : int&#10;-isStoped : Boolean&#10;-title : String" style="text;strokeColor=none;fillColor=none;align=left;verticalAlign=top;spacingLeft=4;spacingRight=4;overflow=hidden;rotatable=0;points=[[0,0.5],[1,0.5]];portConstraint=eastwest;" parent="115" vertex="1">
                    <mxGeometry y="26" width="170" height="184" as="geometry"/>
                </mxCell>
                <mxCell id="117" value="" style="line;strokeWidth=1;fillColor=none;align=left;verticalAlign=middle;spacingTop=-1;spacingLeft=3;spacingRight=3;rotatable=0;labelPosition=right;points=[];portConstraint=eastwest;" parent="115" vertex="1">
                    <mxGeometry y="210" width="170" height="8" as="geometry"/>
                </mxCell>
                <mxCell id="118" value=" " style="text;strokeColor=none;fillColor=none;align=left;verticalAlign=top;spacingLeft=4;spacingRight=4;overflow=hidden;rotatable=0;points=[[0,0.5],[1,0.5]];portConstraint=eastwest;" parent="115" vertex="1">
                    <mxGeometry y="218" width="170" height="26" as="geometry"/>
                </mxCell>
                <mxCell id="119" value="Employee" style="swimlane;fontStyle=1;align=center;verticalAlign=top;childLayout=stackLayout;horizontal=1;startSize=26;horizontalStack=0;resizeParent=1;resizeParentMax=0;resizeLast=0;collapsible=1;marginBottom=0;" parent="1" vertex="1">
                    <mxGeometry x="-600" y="-1080" width="160" height="88" as="geometry"/>
                </mxCell>
                <mxCell id="120" value="- number : String&#10;- name : String&#10;- startDate : Date" style="text;strokeColor=none;fillColor=none;align=left;verticalAlign=top;spacingLeft=4;spacingRight=4;overflow=hidden;rotatable=0;points=[[0,0.5],[1,0.5]];portConstraint=eastwest;" parent="119" vertex="1">
                    <mxGeometry y="26" width="160" height="54" as="geometry"/>
                </mxCell>
                <mxCell id="121" value="" style="line;strokeWidth=1;fillColor=none;align=left;verticalAlign=middle;spacingTop=-1;spacingLeft=3;spacingRight=3;rotatable=0;labelPosition=right;points=[];portConstraint=eastwest;" parent="119" vertex="1">
                    <mxGeometry y="80" width="160" height="8" as="geometry"/>
                </mxCell>
                <mxCell id="122" value="" style="endArrow=none;html=1;exitX=0.5;exitY=0;exitDx=0;exitDy=0;" parent="1" source="115" target="108" edge="1">
                    <mxGeometry width="50" height="50" relative="1" as="geometry">
                        <mxPoint x="-650" y="-700" as="sourcePoint"/>
                        <mxPoint x="-600" y="-750" as="targetPoint"/>
                    </mxGeometry>
                </mxCell>
                <mxCell id="123" value="" style="endArrow=none;html=1;exitX=0.75;exitY=0;exitDx=0;exitDy=0;entryX=0.465;entryY=1.042;entryDx=0;entryDy=0;entryPerimeter=0;" parent="1" source="115" target="114" edge="1">
                    <mxGeometry width="50" height="50" relative="1" as="geometry">
                        <mxPoint x="-635" y="-650" as="sourcePoint"/>
                        <mxPoint x="-643.3333333333333" y="-750" as="targetPoint"/>
                    </mxGeometry>
                </mxCell>
                <mxCell id="124" value="Customer" style="swimlane;fontStyle=1;align=center;verticalAlign=top;childLayout=stackLayout;horizontal=1;startSize=26;horizontalStack=0;resizeParent=1;resizeParentMax=0;resizeLast=0;collapsible=1;marginBottom=0;" parent="1" vertex="1">
                    <mxGeometry x="-270" y="-880" width="190" height="226" as="geometry"/>
                </mxCell>
                <mxCell id="125" value="- Address : String&#10;- Company Name : String&#10;- Contact Person : TecnicalStaff&#10;-Fax Number&#10;" style="text;strokeColor=none;fillColor=none;align=left;verticalAlign=top;spacingLeft=4;spacingRight=4;overflow=hidden;rotatable=0;points=[[0,0.5],[1,0.5]];portConstraint=eastwest;" parent="124" vertex="1">
                    <mxGeometry y="26" width="190" height="84" as="geometry"/>
                </mxCell>
                <mxCell id="126" value="" style="line;strokeWidth=1;fillColor=none;align=left;verticalAlign=middle;spacingTop=-1;spacingLeft=3;spacingRight=3;rotatable=0;labelPosition=right;points=[];portConstraint=eastwest;" parent="124" vertex="1">
                    <mxGeometry y="110" width="190" height="10" as="geometry"/>
                </mxCell>
                <mxCell id="127" value="+commission() : void&#10;+make payment() : void&#10;+propose() : void&#10;+provideDetail() : void&#10;+request revision()" style="text;strokeColor=none;fillColor=none;align=left;verticalAlign=top;spacingLeft=4;spacingRight=4;overflow=hidden;rotatable=0;points=[[0,0.5],[1,0.5]];portConstraint=eastwest;" parent="124" vertex="1">
                    <mxGeometry y="120" width="190" height="106" as="geometry"/>
                </mxCell>
                <mxCell id="128" value="" style="endArrow=none;html=1;exitX=0.994;exitY=0.141;exitDx=0;exitDy=0;entryX=0;entryY=0.5;entryDx=0;entryDy=0;exitPerimeter=0;" parent="1" source="116" target="124" edge="1">
                    <mxGeometry width="50" height="50" relative="1" as="geometry">
                        <mxPoint x="-592.5" y="-650" as="sourcePoint"/>
                        <mxPoint x="-390.9499999999998" y="-758.0680000000002" as="targetPoint"/>
                    </mxGeometry>
                </mxCell>
                <mxCell id="129" value="Advertisment" style="swimlane;fontStyle=1;align=center;verticalAlign=top;childLayout=stackLayout;horizontal=1;startSize=26;horizontalStack=0;resizeParent=1;resizeParentMax=0;resizeLast=0;collapsible=1;marginBottom=0;" parent="1" vertex="1">
                    <mxGeometry x="-380" y="-600" width="170" height="140" as="geometry"/>
                </mxCell>
                <mxCell id="130" value="-actualCost : Double&#10;-estimeted : Double&#10;-targetData : long&#10;-title : String" style="text;strokeColor=none;fillColor=none;align=left;verticalAlign=top;spacingLeft=4;spacingRight=4;overflow=hidden;rotatable=0;points=[[0,0.5],[1,0.5]];portConstraint=eastwest;" parent="129" vertex="1">
                    <mxGeometry y="26" width="170" height="64" as="geometry"/>
                </mxCell>
                <mxCell id="131" value="" style="line;strokeWidth=1;fillColor=none;align=left;verticalAlign=middle;spacingTop=-1;spacingLeft=3;spacingRight=3;rotatable=0;labelPosition=right;points=[];portConstraint=eastwest;" parent="129" vertex="1">
                    <mxGeometry y="90" width="170" height="50" as="geometry"/>
                </mxCell>
                <mxCell id="132" value="" style="endArrow=diamondThin;endFill=0;endSize=24;html=1;entryX=1;entryY=0.5;entryDx=0;entryDy=0;" parent="1" source="130" target="116" edge="1">
                    <mxGeometry width="160" relative="1" as="geometry">
                        <mxPoint x="-550" y="-538.59" as="sourcePoint"/>
                        <mxPoint x="-390" y="-538.59" as="targetPoint"/>
                    </mxGeometry>
                </mxCell>
                <mxCell id="133" value="NewsPaper" style="swimlane;fontStyle=1;align=center;verticalAlign=top;childLayout=stackLayout;horizontal=1;startSize=26;horizontalStack=0;resizeParent=1;resizeParentMax=0;resizeLast=0;collapsible=1;marginBottom=0;" parent="1" vertex="1">
                    <mxGeometry x="-520" y="-350" width="170" height="80" as="geometry"/>
                </mxCell>
                <mxCell id="134" value="-placementDate : Date&#10;-repeateDate : Date" style="text;strokeColor=none;fillColor=none;align=left;verticalAlign=top;spacingLeft=4;spacingRight=4;overflow=hidden;rotatable=0;points=[[0,0.5],[1,0.5]];portConstraint=eastwest;" parent="133" vertex="1">
                    <mxGeometry y="26" width="170" height="44" as="geometry"/>
                </mxCell>
                <mxCell id="135" value="" style="line;strokeWidth=1;fillColor=none;align=left;verticalAlign=middle;spacingTop=-1;spacingLeft=3;spacingRight=3;rotatable=0;labelPosition=right;points=[];portConstraint=eastwest;" parent="133" vertex="1">
                    <mxGeometry y="70" width="170" height="10" as="geometry"/>
                </mxCell>
                <mxCell id="136" value="Extends" style="endArrow=block;endSize=16;endFill=0;html=1;entryX=0.5;entryY=1;entryDx=0;entryDy=0;" parent="1" target="129" edge="1">
                    <mxGeometry width="160" relative="1" as="geometry">
                        <mxPoint x="-295" y="-390" as="sourcePoint"/>
                        <mxPoint x="-270" y="-470" as="targetPoint"/>
                    </mxGeometry>
                </mxCell>
                <mxCell id="137" value="Website" style="swimlane;fontStyle=1;align=center;verticalAlign=top;childLayout=stackLayout;horizontal=1;startSize=26;horizontalStack=0;resizeParent=1;resizeParentMax=0;resizeLast=0;collapsible=1;marginBottom=0;" parent="1" vertex="1">
                    <mxGeometry x="-230" y="-350" width="170" height="110" as="geometry"/>
                </mxCell>
                <mxCell id="138" value="-endDate : Date&#10;-startDate : Date&#10;-websiteProvider : String" style="text;strokeColor=none;fillColor=none;align=left;verticalAlign=top;spacingLeft=4;spacingRight=4;overflow=hidden;rotatable=0;points=[[0,0.5],[1,0.5]];portConstraint=eastwest;" parent="137" vertex="1">
                    <mxGeometry y="26" width="170" height="54" as="geometry"/>
                </mxCell>
                <mxCell id="139" value="" style="line;strokeWidth=1;fillColor=none;align=left;verticalAlign=middle;spacingTop=-1;spacingLeft=3;spacingRight=3;rotatable=0;labelPosition=right;points=[];portConstraint=eastwest;" parent="137" vertex="1">
                    <mxGeometry y="80" width="170" height="30" as="geometry"/>
                </mxCell>
                <mxCell id="140" value="NewsPaperCompany" style="swimlane;fontStyle=1;align=center;verticalAlign=top;childLayout=stackLayout;horizontal=1;startSize=26;horizontalStack=0;resizeParent=1;resizeParentMax=0;resizeLast=0;collapsible=1;marginBottom=0;" parent="1" vertex="1">
                    <mxGeometry x="-540" y="-166" width="170" height="76" as="geometry"/>
                </mxCell>
                <mxCell id="141" value="" style="line;strokeWidth=1;fillColor=none;align=left;verticalAlign=middle;spacingTop=-1;spacingLeft=3;spacingRight=3;rotatable=0;labelPosition=right;points=[];portConstraint=eastwest;" parent="140" vertex="1">
                    <mxGeometry y="26" width="170" height="50" as="geometry"/>
                </mxCell>
                <mxCell id="142" value="" style="endArrow=none;html=1;exitX=0.5;exitY=0;exitDx=0;exitDy=0;entryX=0.5;entryY=1;entryDx=0;entryDy=0;startArrow=none;" parent="1" source="147" target="133" edge="1">
                    <mxGeometry width="50" height="50" relative="1" as="geometry">
                        <mxPoint x="-445" y="-190" as="sourcePoint"/>
                        <mxPoint x="-490" y="-270" as="targetPoint"/>
                    </mxGeometry>
                </mxCell>
                <mxCell id="143" value="" style="endArrow=none;html=1;exitX=0.5;exitY=0;exitDx=0;exitDy=0;entryX=0.5;entryY=1;entryDx=0;entryDy=0;" parent="1" source="140" target="147" edge="1">
                    <mxGeometry width="50" height="50" relative="1" as="geometry">
                        <mxPoint x="-545" y="-200" as="sourcePoint"/>
                        <mxPoint x="-355" y="-260" as="targetPoint"/>
                    </mxGeometry>
                </mxCell>
                <mxCell id="144" value="" style="endArrow=none;html=1;entryX=0.5;entryY=0;entryDx=0;entryDy=0;exitX=0.5;exitY=0;exitDx=0;exitDy=0;" parent="1" source="133" target="137" edge="1">
                    <mxGeometry width="50" height="50" relative="1" as="geometry">
                        <mxPoint x="-220" y="-450" as="sourcePoint"/>
                        <mxPoint x="-260" y="-350" as="targetPoint"/>
                        <Array as="points">
                            <mxPoint x="-435" y="-390"/>
                            <mxPoint x="-300" y="-390"/>
                            <mxPoint x="-145" y="-390"/>
                        </Array>
                    </mxGeometry>
                </mxCell>
                <mxCell id="145" value="-design &amp;amp; Implement" style="text;html=1;align=center;verticalAlign=middle;resizable=0;points=[];autosize=1;strokeColor=none;" parent="1" vertex="1">
                    <mxGeometry x="-790" y="-720" width="130" height="20" as="geometry"/>
                </mxCell>
                <mxCell id="146" value="-Recieved by" style="text;html=1;align=center;verticalAlign=middle;resizable=0;points=[];autosize=1;strokeColor=none;" parent="1" vertex="1">
                    <mxGeometry x="-510" y="-710" width="90" height="20" as="geometry"/>
                </mxCell>
                <mxCell id="147" value="-owns&lt;br&gt;" style="text;html=1;align=center;verticalAlign=middle;resizable=0;points=[];autosize=1;strokeColor=none;" parent="1" vertex="1">
                    <mxGeometry x="-470" y="-210" width="50" height="20" as="geometry"/>
                </mxCell>
                <mxCell id="148" value="" style="endArrow=none;html=1;exitX=0.5;exitY=0;exitDx=0;exitDy=0;entryX=0.5;entryY=1;entryDx=0;entryDy=0;startArrow=none;" parent="1" target="147" edge="1">
                    <mxGeometry width="50" height="50" relative="1" as="geometry">
                        <mxPoint x="-445" y="-190" as="sourcePoint"/>
                        <mxPoint x="-435" y="-240" as="targetPoint"/>
                    </mxGeometry>
                </mxCell>
                <mxCell id="151" value="" style="endArrow=diamondThin;endFill=0;endSize=24;html=1;" edge="1" parent="1">
                    <mxGeometry width="160" relative="1" as="geometry">
                        <mxPoint x="-510" y="-840" as="sourcePoint"/>
                        <mxPoint x="-350" y="-840" as="targetPoint"/>
                    </mxGeometry>
                </mxCell>
                <mxCell id="152" value="" style="endArrow=block;dashed=1;endFill=0;endSize=12;html=1;" edge="1" parent="1">
                    <mxGeometry width="160" relative="1" as="geometry">
                        <mxPoint x="-510" y="-840" as="sourcePoint"/>
                        <mxPoint x="-350" y="-840" as="targetPoint"/>
                    </mxGeometry>
                </mxCell>
                <mxCell id="153" value="" style="endArrow=block;dashed=1;endFill=0;endSize=12;html=1;" edge="1" parent="1">
                    <mxGeometry width="160" relative="1" as="geometry">
                        <mxPoint x="-510" y="-840" as="sourcePoint"/>
                        <mxPoint x="-350" y="-840" as="targetPoint"/>
                    </mxGeometry>
                </mxCell>
            </root>
        </mxGraphModel>
    </diagram>
</mxfile>